# xmcd
#
# Track frame offsets:
#  150
#  18152
#  38943
#  55498
#  77256
#  97733
#  115266
#  139466
#  163026
#  181549
#  204342
#  230934
#  235964
#  286913
#
# Disc length: 3833 seconds
#
# Revision: 0
# Processed by: cddbd v1.5.1PL0 Copyright (c) Steve Scherf et al.
# Submitted via: AltoMP3_Maker 3.0
#
DISCID=b40ef70e
DTITLE=Seal - IV
DYEAR=1900
DGENRE=
TTITLE0=Get it Together
TTITLE1=Love's divine
TTITLE2=Waiting for you
TTITLE3=My vision
TTITLE4=Don't Make me wait
TTITLE5=Let me roll
TTITLE6=Touch
TTITLE7=Where there's Gold
TTITLE8=Loneliest Star
TTITLE9=Heavenly (Good Feeling)
TTITLE10=Tinsel
TTITLE11=Get it Together (Reprise)
TTITLE12=Love's Divine (DeepSky Club Mix)
TTITLE13=data
EXTD=
EXTT0=
EXTT1=
EXTT2=
EXTT3=
EXTT4=
EXTT5=
EXTT6=
EXTT7=
EXTT8=
EXTT9=
EXTT10=
EXTT11=
EXTT12=
EXTT13=
PLAYORDER=
